<svg
  xmlns="http://www.w3.org/2000/svg"
  viewBox="0 0 800 420"
  role="img"
  aria-label="MyBusiness.gov cover art"
>
  <rect width="800" height="420" fill="#F7F9F8" />
  <rect x="0" y="0" width="800" height="12" fill="#17627C" />
  <text
    x="56"
    y="86"
    fill="#17627C"
    font-family="'Public Sans', Arial, sans-serif"
    font-size="18"
    font-weight="700"
    letter-spacing="5"
  >
    PUBLIC-SECTOR PROJECT
  </text>
  <text
    x="56"
    y="174"
    fill="#16261D"
    font-family="'Source Serif 4', Georgia, serif"
    font-size="62"
    font-weight="700"
  >
    MyBusiness.gov
  </text>
  <text
    x="58"
    y="228"
    fill="#54625B"
    font-family="'Public Sans', Arial, sans-serif"
    font-size="27"
  >
    AI-guided permits and licensing concept
  </text>
  <text
    x="58"
    y="272"
    fill="#54625B"
    font-family="'Public Sans', Arial, sans-serif"
    font-size="23"
  >
    Requirements analysis / service design / GovHack 2025
  </text>
  <g fill="none" stroke="#C9D7CF" stroke-width="2">
    <path d="M58 334 H386" />
    <path d="M58 372 H386" />
    <path d="M58 410 H386" />
  </g>
  <g fill="#17627C">
    <circle cx="108" cy="334" r="10" />
    <circle cx="232" cy="372" r="10" />
    <circle cx="356" cy="410" r="10" />
  </g>
  <g fill="none" stroke="#17627C" stroke-width="3">
    <path d="M118 334 C158 334 184 372 222 372" />
    <path d="M242 372 C282 372 308 410 346 410" />
  </g>
  <rect
    x="500"
    y="82"
    width="236"
    height="230"
    rx="8"
    fill="#FFFFFF"
    stroke="#C9D7CF"
  />
  <text
    x="532"
    y="144"
    fill="#17627C"
    font-family="'Public Sans', Arial, sans-serif"
    font-size="17"
    font-weight="700"
  >
    RECOGNITION
  </text>
  <text
    x="532"
    y="210"
    fill="#16261D"
    font-family="'Source Serif 4', Georgia, serif"
    font-size="46"
    font-weight="700"
  >
    Spirit of
  </text>
  <text
    x="532"
    y="258"
    fill="#16261D"
    font-family="'Source Serif 4', Georgia, serif"
    font-size="46"
    font-weight="700"
  >
    GovHack
  </text>
  <rect x="532" y="282" width="116" height="8" fill="#B88718" />
</svg>
