<svg
  xmlns="http://www.w3.org/2000/svg"
  viewBox="0 0 800 420"
  role="img"
  aria-label="SabaiHub cover art"
>
  <rect width="800" height="420" fill="#F6F8F6" />
  <rect x="0" y="0" width="168" height="420" fill="#28583B" />
  <rect x="40" y="42" width="88" height="8" fill="#DCEAE1" />
  <rect x="40" y="66" width="54" height="8" fill="#DCEAE1" opacity="0.72" />
  <text
    x="220"
    y="86"
    fill="#28583B"
    font-family="'Public Sans', Arial, sans-serif"
    font-size="18"
    font-weight="700"
    letter-spacing="5"
  >
    PRODUCT
  </text>
  <text
    x="220"
    y="172"
    fill="#16261D"
    font-family="'Source Serif 4', Georgia, serif"
    font-size="66"
    font-weight="700"
  >
    SabaiHub
  </text>
  <text
    x="222"
    y="224"
    fill="#54625B"
    font-family="'Public Sans', Arial, sans-serif"
    font-size="27"
  >
    Thai massage operations platform
  </text>
  <text
    x="222"
    y="268"
    fill="#54625B"
    font-family="'Public Sans', Arial, sans-serif"
    font-size="24"
  >
    Scheduling / staff / payouts / shop management
  </text>
  <rect
    x="486"
    y="82"
    width="224"
    height="228"
    rx="8"
    fill="#FFFFFF"
    stroke="#C9D7CF"
  />
  <text
    x="518"
    y="134"
    fill="#28583B"
    font-family="'Public Sans', Arial, sans-serif"
    font-size="17"
    font-weight="700"
  >
    LIVE SIGNAL
  </text>
  <text
    x="518"
    y="204"
    fill="#16261D"
    font-family="'Source Serif 4', Georgia, serif"
    font-size="56"
    font-weight="700"
  >
    2 shops
  </text>
  <text
    x="518"
    y="244"
    fill="#54625B"
    font-family="'Public Sans', Arial, sans-serif"
    font-size="22"
  >
    validated in operation
  </text>
  <path d="M518 278 H676" stroke="#C9D7CF" stroke-width="2" />
  <path d="M518 302 H630" stroke="#C9D7CF" stroke-width="2" />
  <g fill="none" stroke="#D7E2DC" stroke-width="2">
    <path d="M220 334 H710" />
    <path d="M220 364 H710" />
    <path d="M220 394 H710" />
  </g>
  <g fill="#17627C">
    <rect x="220" y="324" width="116" height="20" rx="4" opacity="0.82" />
    <rect x="356" y="354" width="168" height="20" rx="4" opacity="0.64" />
    <rect x="542" y="384" width="130" height="20" rx="4" opacity="0.72" />
  </g>
</svg>
